<?xml version="1.0" encoding="utf-8"?>
<!-- Generator: Adobe Illustrator 26.0.1, SVG Export Plug-In . SVG Version: 6.00 Build 0)  -->
<svg version="1.1" id="Ebene_1" xmlns="http://www.w3.org/2000/svg" xmlns:xlink="http://www.w3.org/1999/xlink" x="0px" y="0px"
	 viewBox="0 0 283.5 226.8" style="enable-background:new 0 0 283.5 226.8;" xml:space="preserve">
<style type="text/css">
	.st0{fill:#224026;}
</style>
<g>
	<path class="st0" d="M57.7,106.7c0,11.1-8.5,23-23.6,23H19v17.9H4V83.7h30.8C49.2,83.7,57.7,95.6,57.7,106.7z M43,106.8
		c0-4.8-3.7-9.4-8.6-9.4H19v18.8h14.8C39.3,116.2,43,111.6,43,106.8z"/>
	<path class="st0" d="M64.5,80.9h14.6v66.6H64.5V80.9z"/>
	<path class="st0" d="M87.3,124.3c0-14.2,10-24.6,22.6-24.6c5.8,0,10.2,2.1,13.4,5.6V101H138v46.6h-14.6v-4.3
		c-3.2,3.4-7.7,5.6-13.4,5.6C97.4,148.9,87.3,138.5,87.3,124.3z M123.8,124.2c0-6.9-4.8-11.5-11.1-11.5c-6.3,0-10.9,4.6-10.9,11.5
		c0,7,4.6,11.7,10.9,11.7C118.9,135.9,123.8,131.3,123.8,124.2z"/>
	<path class="st0" d="M195.5,120.5v27.1h-14.6v-24.2c0-6.1-2.6-10.1-8.3-10.1c-5.7,0-9,4.5-9,11.6v22.7H149V101h14.6v4.8
		c3.1-3.6,7.8-6.1,13.8-6.1C189.8,99.8,195.5,108.2,195.5,120.5z"/>
	<path class="st0" d="M236.5,146c-3.9,1.6-7.3,2.3-11.4,2.3c-11.3,0-16.4-6.9-16.4-17.5v-17h-7.2V101h7.2V86.4h14.6V101h12.5v12.8
		h-12.5v17c0,3.1,1.6,4.8,4.8,4.8c1.9,0,3.4-0.4,4.9-1.2L236.5,146z"/>
	<path class="st0" d="M239.5,134.4l13.1-3.8c1.6,3.8,5.3,6.8,10.8,6.8c3.7,0,5.8-1.6,5.8-3.4c0-1.6-1.6-2.7-4.4-3.6l-11.1-3.3
		c-7-2.1-11.8-6.3-11.8-13c0-8.2,8.9-14.4,19.4-14.4c10,0,18.1,4.6,21.1,11.9l-12.8,3.7c-1.7-2.5-4.5-4.4-8.4-4.4
		c-2.6,0-4.9,1.2-4.9,2.9c0,1.2,0.7,2.1,2.6,2.7l10.8,3c7.4,2.1,13.9,4.8,13.9,13.8c0,8.9-8.5,15.5-20.7,15.5
		C250.8,148.9,241.7,141.9,239.5,134.4z"/>
</g>
<g>
	<path class="st0" d="M1.5,193.5c0-18.9,14.3-33.2,33.5-33.2c18.3,0,28.9,11.5,31.3,21.5l-14.8,3.7c-1.6-5.4-7.7-10.9-16.4-10.9
		c-11.1,0-18.1,8.6-18.1,18.9c0,10,6.9,19.1,18.1,19.1c8.8,0,14.9-5.2,16.4-10.7l14.8,3.7c-2.5,10-13.1,21.2-31,21.2
		C15.9,226.8,1.5,212.4,1.5,193.5z"/>
	<path class="st0" d="M74.6,158.8h14.6v66.6H74.6V158.8z"/>
	<path class="st0" d="M146.2,178.9v46.6h-14.6v-4.8c-3.1,3.6-7.8,6.1-13.8,6.1c-12.4,0-18.2-8.4-18.2-20.7v-27.1h14.6v24.2
		c0,6.1,2.6,10.1,8.3,10.1c5.7,0,9-4.5,9-11.6v-22.7H146.2z"/>
	<path class="st0" d="M207.9,202.2c0,14.2-10,24.6-22.6,24.6c-5.8,0-10.2-2.2-13.4-5.6v4.3h-14.6v-66.6h14.6v24.4
		c3.2-3.5,7.7-5.6,13.4-5.6C197.8,177.7,207.9,188.1,207.9,202.2z M193.4,202.1c0-6.9-4.6-11.5-10.9-11.5c-6.3,0-11.1,4.6-11.1,11.5
		c0,7,4.8,11.7,11.1,11.7C188.9,213.8,193.4,209.2,193.4,202.1z"/>
</g>
<g>
	<path class="st0" d="M35.1,18.7c8,0,13.6,4.9,15,9.8l0.4,1.4l17.7-4.4l-0.4-1.5C65.1,13.2,53.7,1.5,35,1.5c-20,0-35,14.9-35,34.8
		S15.2,71,35.3,71c18.5,0,29.9-11.6,32.5-22.3l0.4-1.5l-17.7-4.5l-0.4,1.4c-1.3,4.8-6.9,9.6-15,9.6c-10.8,0-16.6-9-16.6-17.6
		C18.6,25.9,25.4,18.7,35.1,18.7z M15.5,36.1c0,11.7,8.4,20.6,19.6,20.6c9.2,0,15.2-5.1,17.4-10.4l11.9,3
		c-3,9.2-13.1,18.6-29.1,18.6C16.9,67.9,3,54.3,3,36.2C3,18.1,16.8,4.5,35,4.5c16.2,0,26.4,9.5,29.4,18.8l-11.9,2.9
		c-2.3-5.5-8.7-10.6-17.4-10.6C23.8,15.7,15.5,24.3,15.5,36.1z"/>
	<path class="st0" d="M151.6,32c-7.3,0-12.4,5.3-12.4,12.9s5.1,12.9,12.4,12.9S164,52.5,164,44.9S158.9,32,151.6,32z M151.6,54.8
		c-5.6,0-9.3-4-9.3-9.9s3.8-9.9,9.3-9.9c5.6,0,9.3,4,9.3,9.9S157.2,54.8,151.6,54.8z"/>
	<path class="st0" d="M151.6,18.8c-15.1,0-26.5,11.2-26.5,26.1S136.5,71,151.6,71s26.5-11.2,26.5-26.1S166.8,18.8,151.6,18.8z
		 M151.6,67.9c-13.6,0-23.5-9.7-23.5-23s9.9-23,23.5-23s23.5,9.7,23.5,23S165.2,67.9,151.6,67.9z"/>
	<path class="st0" d="M183.3,0v69.7H201V0H183.3z M197.9,66.6h-11.6V3h11.6V66.6z"/>
	<path class="st0" d="M96.1,18.8C81,18.8,69.6,30,69.6,44.9c0,14.4,10.7,25.3,25.1,26c0.5,0,1,0.1,1.5,0.1
		c15.1,0,26.5-11.2,26.5-26.1S111.2,18.8,96.1,18.8z M96.1,67.9c-0.4,0-0.8,0-1.2-0.1c-5.3-0.5-9.4-4-11-7.4c-1.2-2.5-1.3-5-0.3-7
		c3.3,1.7,6.3,2.5,9.1,2.5c1.4,0,2.8-0.2,4.1-0.7c6.5-2.3,9.6-9.7,11.6-14.6c0.6-1.4,1.1-2.6,1.5-3.4l-1.3-2.3
		c-0.9,0-2.2-0.2-3.7-0.3c-5.3-0.6-13.2-1.6-18.4,2.9c-3.2,2.8-4.8,7.3-4.9,13.3c-2.1,3-2.2,7-0.4,10.8c0.4,0.8,0.8,1.5,1.4,2.3
		c-6.1-4-9.9-10.9-9.9-19.2c0-13.3,9.9-23,23.5-23s23.5,9.7,23.5,23S109.7,67.9,96.1,67.9z M96.9,40.6c-0.3,0.1-6.8,2.1-12,6.7
		c0.5-3.3,1.7-5.8,3.6-7.4c4.1-3.7,11-2.8,16-2.2c0.6,0.1,1.2,0.1,1.8,0.2c-0.2,0.5-0.4,1-0.7,1.6c-1.9,4.7-4.5,11-9.8,12.9
		c-2.8,1-6.3,0.5-10.3-1.4c4.9-5.1,12.2-7.4,12.3-7.4L96.9,40.6z"/>
</g>
</svg>
